<mxfile host="drawio-plugin" modified="2022-11-23T02:44:02.717Z" agent="5.0 (Windows NT 6.2; Win64; x64) AppleWebKit/537.36 (KHTML, like Gecko) Chrome/98.0.4758.102 Safari/537.36" etag="BCAKbp8eMFZzXvv5zwfS" version="15.5.4" type="embed"><diagram id="23iRSUPoRavnBvh4doch" name="Page-1"><mxGraphModel dx="948" dy="390" grid="1" gridSize="10" guides="1" tooltips="1" connect="1" arrows="1" fold="1" page="1" pageScale="1" pageWidth="827" pageHeight="1169" math="0" shadow="0"><root><mxCell id="0"/><mxCell id="1" parent="0"/><mxCell id="4" value="UseTile" style="ellipse;whiteSpace=wrap;html=1;" parent="1" vertex="1"><mxGeometry width="110" height="50" as="geometry"/></mxCell><mxCell id="41" value="h:hand" style="shape=umlLifeline;perimeter=lifelinePerimeter;whiteSpace=wrap;html=1;container=1;collapsible=0;recursiveResize=0;outlineConnect=0;" parent="1" vertex="1"><mxGeometry x="100" y="60" width="100" height="310" as="geometry"/></mxCell><mxCell id="45" value="" style="html=1;points=[];perimeter=orthogonalPerimeter;" parent="41" vertex="1"><mxGeometry x="45" y="40" width="10" height="250" as="geometry"/></mxCell><mxCell id="80" value="" style="html=1;points=[];perimeter=orthogonalPerimeter;" vertex="1" parent="41"><mxGeometry x="50" y="70" width="10" height="40" as="geometry"/></mxCell><mxCell id="81" value="containsTiles(used)" style="edgeStyle=orthogonalEdgeStyle;html=1;align=left;spacingLeft=2;endArrow=block;rounded=0;entryX=1;entryY=0;" edge="1" target="80" parent="41"><mxGeometry relative="1" as="geometry"><mxPoint x="55" y="50" as="sourcePoint"/><Array as="points"><mxPoint x="85" y="50"/></Array></mxGeometry></mxCell><mxCell id="76" value=":DrawPile" style="shape=umlLifeline;perimeter=lifelinePerimeter;whiteSpace=wrap;html=1;container=1;collapsible=0;recursiveResize=0;outlineConnect=0;" vertex="1" parent="1"><mxGeometry x="250" y="60" width="100" height="310" as="geometry"/></mxCell><mxCell id="82" value="" style="html=1;points=[];perimeter=orthogonalPerimeter;" vertex="1" parent="1"><mxGeometry x="151" y="235" width="10" height="95" as="geometry"/></mxCell><mxCell id="83" value="fillHand()" style="edgeStyle=orthogonalEdgeStyle;html=1;align=left;spacingLeft=2;endArrow=block;rounded=0;entryX=1;entryY=0;" edge="1" parent="1" target="82"><mxGeometry relative="1" as="geometry"><mxPoint x="156" y="215" as="sourcePoint"/><Array as="points"><mxPoint x="186" y="215"/></Array></mxGeometry></mxCell><mxCell id="85" value="[tiles.size() &lt;br&gt;&amp;lt; HAND_SIZE]" style="text;html=1;align=center;verticalAlign=middle;resizable=0;points=[];autosize=1;strokeColor=none;fillColor=none;" vertex="1" parent="1"><mxGeometry x="27" y="260" width="100" height="30" as="geometry"/></mxCell><mxCell id="86" value="" style="html=1;points=[];perimeter=orthogonalPerimeter;" vertex="1" parent="1"><mxGeometry x="296" y="250" width="10" height="80" as="geometry"/></mxCell><mxCell id="87" value="draw()" style="html=1;verticalAlign=bottom;endArrow=block;entryX=0;entryY=0;rounded=0;exitX=1.069;exitY=0.159;exitDx=0;exitDy=0;exitPerimeter=0;" edge="1" target="86" parent="1" source="82"><mxGeometry x="0.017" y="-20" relative="1" as="geometry"><mxPoint x="226" y="250" as="sourcePoint"/><mxPoint as="offset"/></mxGeometry></mxCell><mxCell id="88" value="tile" style="html=1;verticalAlign=bottom;endArrow=open;dashed=1;endSize=8;exitX=0;exitY=0.95;rounded=0;" edge="1" source="86" parent="1" target="82"><mxGeometry relative="1" as="geometry"><mxPoint x="226" y="326" as="targetPoint"/></mxGeometry></mxCell><mxCell id="84" value="loop" style="shape=umlFrame;whiteSpace=wrap;html=1;width=43;height=20;" vertex="1" parent="1"><mxGeometry x="27" y="240" width="300" height="90" as="geometry"/></mxCell></root></mxGraphModel></diagram></mxfile>